<?xml version="1.0" encoding="utf-8"?>
<!-- Generator: Adobe Illustrator 24.0.2, SVG Export Plug-In . SVG Version: 6.00 Build 0)  -->
<svg version="1.1" xmlns="http://www.w3.org/2000/svg" xmlns:xlink="http://www.w3.org/1999/xlink" x="0px" y="0px"
	 viewBox="0 0 276 240" style="enable-background:new 0 0 276 240;" xml:space="preserve">
<style type="text/css">
	.st0{fill:#DDDBDB;}
</style>
<g id="Calque_2">
	<ellipse class="st0" cx="188.3" cy="67.5" rx="36.2" ry="35.8"/>
</g>
<g id="Calque_1">
	<circle class="st0" cx="92.8" cy="57.6" r="44.3"/>
	<path class="st0" d="M147.8,211.6H42.7c-11.7,0-21.1-9.5-21.1-21.1v-62.9c0-11.7,9.5-21.1,21.1-21.1c33.9,12.5,69,11.8,105.1,0
		c11.7,0,21.1,9.5,21.1,21.1v62.9C169,202.1,159.5,211.6,147.8,211.6z"/>
	<path class="st0" d="M170.9,109.9"/>
	<path class="st0" d="M181.9,111.4c0,0,25.5,17.2,38.4-1.5c13-18.7,5.3-25.9,14.4-28.3s30.2,1.4,24,42.7
		c-6.2,41.3-10.6,92.6-28.8,92.6s-43.2-27.4-50.9-52.3C171.4,139.7,167,104.4,181.9,111.4z"/>
</g>
</svg>
