<?xml version="1.0" encoding="utf-8"?>
<!-- Generator: Adobe Illustrator 24.0.2, SVG Export Plug-In . SVG Version: 6.00 Build 0)  -->
<svg version="1.1" id="Calque_1" xmlns="http://www.w3.org/2000/svg" xmlns:xlink="http://www.w3.org/1999/xlink" x="0px" y="0px"
	 viewBox="0 0 115.2 95.8" style="enable-background:new 0 0 115.2 95.8;" xml:space="preserve">
<style type="text/css">
	.st0{fill:#3D3D3D;}
	.st1{fill:#DDDBDB;}
</style>
<path class="st0" d="M154.8,112.6"/>
<path class="st1" d="M98,89.4C59.6,75.5,29.5,53.9,8.8,23.5c-1.2-1.8-1-4.5,0.6-6.6l3.4-4.6c2.4-3.2,7.1-3.9,8.2-0.8
	c14.9,42.6,43.4,63.2,84.9,62.8c3.3,0,4,4.9,1.6,8.1l-3.3,4.5C102.6,89.1,100,90.1,98,89.4z"/>
<path class="st1" d="M14.8,14.3l14.4,23.4c1.2,1.9,3.7,2.2,5,0.6l5.5-7.2c0.8-1,0.8-2.5,0.1-3.7L29.1,9.8c-0.7-1.2-2-1.8-3.2-1.6
	l-9.2,1.3C14.6,9.8,13.6,12.3,14.8,14.3z"/>
<path class="st1" d="M77.9,75.3l26.9,5.8c2.2,0.5,4.3-1.5,4-3.9l-1.1-10.5c-0.2-1.5-1.2-2.7-2.6-3l-20.1-4.3
	c-1.3-0.3-2.7,0.3-3.5,1.5l-5.7,9C74.6,72,75.7,74.8,77.9,75.3z"/>
</svg>
