<?xml version="1.0" encoding="utf-8"?>
<!-- Generator: Adobe Illustrator 24.0.2, SVG Export Plug-In . SVG Version: 6.00 Build 0)  -->
<svg version="1.1" id="Calque_1" xmlns="http://www.w3.org/2000/svg" xmlns:xlink="http://www.w3.org/1999/xlink" x="0px" y="0px"
	 viewBox="0 0 276 240" style="enable-background:new 0 0 276 240;" xml:space="preserve">
<style type="text/css">
	.st0{fill:#DDDBDB;}
</style>
<path class="st0" d="M271.5,99.5c3.8,3,1.7,9.1-3.1,9.1l-130-0.7l-130-0.7c-4.9,0-6.9-6.2-3.1-9.1l60.9-46.4l57-43.4
	c9.3-7.1,22.2-7,31.4,0.2l56.5,44L271.5,99.5z"/>
<path class="st0" d="M218.7,75.9H59.3c-17.2,0-31.2,14-31.2,31.2v95.7c0,17.2,14,31.2,31.2,31.2h42.8c4.5,0,7.9-3.7,7.9-8.2
	c0,0,0-0.1,0-0.1v-40.9c0-6.7,5.4-12.1,12.1-12.1H163c6.7,0,12.1,5.4,12.1,12.1v40.9c0,0,0,0.1,0,0.1c0,4.5,3.4,8.2,7.9,8.2h35.7
	c17.2,0,31.2-14,31.2-31.2v-95.7C249.9,89.9,235.9,75.9,218.7,75.9z"/>
</svg>
