<?xml version="1.0" encoding="utf-8"?>
<!-- Generator: Adobe Illustrator 24.0.2, SVG Export Plug-In . SVG Version: 6.00 Build 0)  -->
<svg version="1.1" xmlns="http://www.w3.org/2000/svg" xmlns:xlink="http://www.w3.org/1999/xlink" x="0px" y="0px"
	 viewBox="0 0 276 240" style="enable-background:new 0 0 276 240;" xml:space="preserve">
<style type="text/css">
	.st0{fill:#FFFFFF;stroke:#575656;stroke-width:2;stroke-miterlimit:10;}
</style>
<g id="Calque_2">
</g>
<g id="Calque_1">
	<path class="st0" d="M244.1,220.6l-210.9-1.8c-5.3,0-9.6-4.4-9.6-9.7v-22.4c0-5.4,4.4-9.7,9.7-9.7h210.8"/>
	<path class="st0" d="M229.7,175.3l-183.4-1.1c-4.6,0-8.4-2.5-8.4-5.6v-12.8c0-3.1,3.8-5.6,8.5-5.6h183.3"/>
	<path class="st0" d="M231.6,148.6l-183.4-1.1c-4.6,0-8.4-2.5-8.4-5.6v-12.8c0-3.1,3.8-5.6,8.5-5.6h183.3"/>
	<path class="st0" d="M211.8,122L55,120.9c-4,0-7.2-2.5-7.2-5.6v-12.8c0-3.1,3.2-5.6,7.2-5.6h156.7"/>
</g>
</svg>
